<?xml version="1.0" encoding="utf-8"?>
<!-- Generator: Adobe Illustrator 21.0.0, SVG Export Plug-In . SVG Version: 6.00 Build 0)  -->
<svg version="1.2" baseProfile="tiny" id="Layer_1" xmlns="http://www.w3.org/2000/svg" xmlns:xlink="http://www.w3.org/1999/xlink"
	 x="0px" y="0px" viewBox="0 0 62 191" xml:space="preserve">
<g>
	<path fill="#FFFFFF" d="M18.4,190.4c-1,0-1.9-0.1-2.8-0.4c-9.7-2.7-11-17.9-10.6-23.5c0.3-5.1,2.1-10.9,4.4-11.5
		c1.6,1.3,3.6,2.6,5.8,3.8c0.8,0.5,1.8,1,2.7,1.4c4.5,2.1,9.3,3,12.5,3.4l0.9,0.3c1.4,0.4,3.3,0.9,5.9,1c0.7,0.8,1.1,2.1,1.1,3.7
		c0,4.1-2.5,10.8-7.2,15.4C29.2,186,24.2,190.4,18.4,190.4C18.4,190.4,18.4,190.4,18.4,190.4z M38.7,164c-0.3,0-0.7,0-1,0
		c-0.6-0.5-1.2-0.6-2.6-0.7c-0.6-0.1-1.4-0.1-2.5-0.3c-0.6-0.1-1.2-0.2-1.9-0.3c-2.5-0.7-4.7-1.3-6.8-1.8l-2.4-0.6
		c-2.1-0.5-2.1-0.5-2.4-0.7c0,0-0.5-0.2-0.7-0.3c-0.2-0.1-0.4-0.2-0.6-0.3c-0.6-0.3-1.3-0.6-2-1.1c-1.2-0.8-2.1-1.6-2.9-2.3
		c-1.1-1-2-1.7-3.1-1.7c0,0-0.1,0-0.1,0c-0.7-0.5-3.4-2.6-5.8-4.8c-5.3-5,9-73.2,26.2-116.5C38.3,11.9,45.7,0.9,51.4,0.9
		c0.3,0,0.7,0,1,0.1c12.7,3,4.7,62.2-1.2,105.4c-2.8,21-5.3,39.1-5.2,48.2l0,0.1c0.1,4.4-0.9,7.2-2.8,8.4
		C42,163.9,40.2,164,38.7,164z"/>
	<path d="M51.4,0.4v1c0.3,0,0.6,0,0.9,0.1c2.7,0.6,4.5,4.2,5.5,10.7c0.9,6.1,1.1,14.4,0.5,25.5c-1.1,20.4-4.5,46-7.6,68.7
		c-2.8,21-5.3,39.2-5.2,48.2l0,0.1c0.1,4.2-0.8,6.9-2.5,8c-1.2,0.8-2.8,0.9-4.2,0.9c-0.3,0-0.6,0-0.8,0c-0.7-0.5-1.4-0.6-2.7-0.7
		c-0.6-0.1-1.4-0.1-2.5-0.3c-0.5-0.1-1.2-0.2-1.9-0.3c-2.5-0.7-4.7-1.3-6.8-1.8l-2.4-0.6c-2.1-0.5-2.1-0.5-2.4-0.6l-0.1-0.1
		c-0.2-0.1-0.4-0.1-0.5-0.2c-0.2-0.1-0.4-0.2-0.6-0.3c-0.7-0.3-1.3-0.7-2-1c-1.2-0.8-2-1.5-2.8-2.2c-1.1-1-2.1-1.9-3.4-1.9
		c-0.8-0.6-3.4-2.6-5.6-4.7C2.3,147,3.1,132.5,9.1,105c5.7-25.7,13.7-52.7,21.4-72.2C41.4,5.5,48.3,1.4,51.4,1.4L51.4,0.4
		 M9.3,155.6c1.6,1.3,3.5,2.5,5.7,3.7c0.9,0.6,1.8,1,2.8,1.4c4.5,2.1,9.4,3,12.6,3.5l0.9,0.3c1.3,0.4,3.2,0.9,5.8,1
		c0.5,0.7,0.8,1.8,0.8,3.2c0,4-2.4,10.5-7.1,15.1c-1.5,1.4-6.7,6.1-12.4,6.1c-0.9,0-1.8-0.1-2.6-0.4c-8.4-2.3-10.7-15.3-10.3-23
		C5.8,161.3,7.5,156.4,9.3,155.6 M51.4,0.4C30.1,0.4-4.7,141.8,3.5,149.5c2.8,2.6,6,5,6,5c0.1,0,0.2,0,0.3,0c1.6,0,2.7,2,5.7,3.9
		c0.8,0.4,1.5,0.8,2,1.1c0.2,0.1,0.4,0.2,0.6,0.3c0.2,0.1,0.4,0.1,0.6,0.2c0.7,0.2,0.1,0.1,5,1.4c1.6,0.4,3.8,1,6.8,1.8
		c0.7,0.1,1.4,0.2,2,0.3c3.6,0.5,4.2,0.2,5,1c0.4,0,0.8,0,1.2,0c1.7,0,3.4-0.1,4.8-1c3.2-2.1,3-7.7,3-9c-0.4-28.5,25.2-149.4,6-154
		C52.1,0.4,51.8,0.4,51.4,0.4L51.4,0.4z M9.5,154.5c-2.9,0.4-4.7,6.9-5,12c-0.4,7.3,1.6,21.4,11,24c1,0.3,2,0.4,2.9,0.4
		c6.6,0,12.3-5.6,13.1-6.4c6.4-6.3,9.3-16.8,6-20c-2.7-0.1-4.6-0.6-6-1c-0.3-0.1-0.6-0.2-1-0.3c-3.3-0.5-8-1.4-12.4-3.4
		c-1-0.4-1.9-0.9-2.7-1.4C13.7,157.4,11.5,156.1,9.5,154.5L9.5,154.5z"/>
</g>
</svg>
