<?xml version="1.0" encoding="utf-8"?>
<!-- Generator: Adobe Illustrator 21.0.0, SVG Export Plug-In . SVG Version: 6.00 Build 0)  -->
<svg version="1.2" baseProfile="tiny" id="Layer_1" xmlns="http://www.w3.org/2000/svg" xmlns:xlink="http://www.w3.org/1999/xlink"
	 x="0px" y="0px" viewBox="0 0 94 47" xml:space="preserve">
<g>
<!-- 	<path d="M0.4,5.3c4.2-2.2,8.9-3.8,12.3-1.7C13.6,4.1,14.4,4.9,15,6c2,3.3,1.6,7.3,2,11.2c0.2,1.9,0.5,3.8,1.3,5.5
		c3,6.3,8.7,2.1,16.4,0.1c3.6-0.9,7.5-1.4,11.9-0.1c4.6,1.4,7.8,4.2,10.7,7.5c4.6,5.3,8.2,11.7,14.8,15c1.3,0.6,2.6,1.1,4.2,1.5
		c7.3,1.7,13.6-1.1,17.5-3.5"/> -->
	<path d="M-0.6,3.5c2.4-1.2,4.9-2.3,7.7-2.7c1.4-0.2,3-0.2,4.5,0.3c1.5,0.5,3,1.5,3.9,2.7c2,2.4,2.5,5.4,2.7,8
		c0.2,2.6,0.1,5.1,0.5,7.4c0.2,1.1,0.5,2.2,1,3.1c0.5,1,1.1,1.7,1.9,2c0.8,0.3,1.9,0.3,3,0.1c1.1-0.2,2.3-0.6,3.5-1
		c2.4-0.8,4.8-1.6,7.4-2.2c2.6-0.5,5.2-0.7,7.9-0.4c2.6,0.4,5.2,1.2,7.5,2.6c2.3,1.3,4.2,3.1,6,5c3.4,3.8,6,8.2,9.5,11.7
		c1.7,1.8,3.7,3.3,5.9,4.5c2.2,1.1,4.6,1.8,7.1,2c5,0.5,10-1.1,14.3-3.7c-4.2,2.7-9.2,4.5-14.4,4.2c-2.5-0.1-5.1-0.7-7.4-1.8
		c-2.3-1.1-4.4-2.7-6.2-4.4c-3.7-3.6-6.5-7.9-9.9-11.4c-1.7-1.8-3.6-3.4-5.7-4.5c-2.1-1.1-4.4-1.9-6.8-2.1c-2.4-0.2-4.8,0-7.1,0.6
		c-2.4,0.6-4.7,1.4-7.1,2.3c-1.2,0.4-2.4,0.9-3.8,1.2c-1.3,0.3-2.9,0.5-4.5-0.1c-0.4-0.1-0.7-0.4-1.1-0.5c-0.4-0.2-0.6-0.5-1-0.8
		c-0.6-0.6-1-1.2-1.4-1.8c-0.8-1.3-1.2-2.6-1.5-4c-0.5-2.7-0.5-5.3-0.8-7.7c-0.2-2.4-0.8-4.6-2.1-6.1c-1.2-1.5-3.1-1.9-5.2-1.5
		C5.6,4.9,3.4,5.9,1.3,7.1L-0.6,3.5z"/>
</g>
</svg>
