<?xml version="1.0" encoding="utf-8"?>
<!-- Generator: Adobe Illustrator 21.0.0, SVG Export Plug-In . SVG Version: 6.00 Build 0)  -->
<svg version="1.2" baseProfile="tiny" id="Layer_1" xmlns="http://www.w3.org/2000/svg" xmlns:xlink="http://www.w3.org/1999/xlink"
	 x="0px" y="0px" viewBox="0 0 49 93" xml:space="preserve">
<g>
	<path fill="#FFFFFF" stroke="#000000" stroke-miterlimit="10" d="M28.5,0.5c0.3,23.4,0.6,46.8,0.9,70.2c0,2.3,15.1-2.4,15.1-0.2
		c0,0-1-71,0-70S28.5,0.5,28.5,0.5z"/>
	<path fill="#FFFFFF" stroke="#000000" stroke-miterlimit="10" d="M28.5,71.5c-3.7,1.7-7.3,3.3-11,5c-1.7,0.3-3.3,0.7-5,1
		c-2.3,0.7-4.7,1.3-7,2l-5,9c3.7,0.5,7.7,0.8,12,1c2.9,0.1,5.5,0.2,9,0c5.6-0.4,8.5-0.5,11-2c3.3-1.9,4.4-4.5,6-4
		c1.2,0.4,1.7,2.3,2,4c2.3,0,4.7,0,7,0c0.4-2.2,0.7-4.5,1-7c0.7-6.7,0.5-12.8,0-18c-12-0.9-23.9-1.4-24-0.1c0,0.1,0,0.1,0,0.1
		C25.1,63.8,26.5,67.1,28.5,71.5z"/>
</g>
</svg>
